<mxfile host="65bd71144e">
    <diagram id="VeeTmUlwIopFXhQv0ddA" name="Page-1">
        <mxGraphModel dx="2816" dy="2268" grid="1" gridSize="10" guides="1" tooltips="1" connect="1" arrows="1" fold="1" page="1" pageScale="1" pageWidth="1654" pageHeight="1169" math="0" shadow="0">
            <root>
                <mxCell id="0"/>
                <mxCell id="1" parent="0"/>
                <mxCell id="2" value="ProductService" style="swimlane;startSize=23;" vertex="1" parent="1">
                    <mxGeometry x="660" y="310" width="560" height="210" as="geometry"/>
                </mxCell>
                <mxCell id="4" value="&lt;div style=&quot;text-align: left&quot;&gt;&lt;span style=&quot;font-size: 27px&quot;&gt;CreateProductService&lt;/span&gt;&lt;/div&gt;&lt;div style=&quot;text-align: left&quot;&gt;&lt;span style=&quot;font-size: 27px&quot;&gt;&lt;br&gt;&lt;/span&gt;&lt;/div&gt;&lt;span style=&quot;font-size: 27px&quot;&gt;&lt;div style=&quot;text-align: left&quot;&gt;&lt;span&gt;EditProductService&lt;/span&gt;&lt;/div&gt;&lt;/span&gt;" style="text;html=1;align=center;verticalAlign=middle;resizable=0;points=[];autosize=1;strokeColor=none;fillColor=none;" vertex="1" parent="2">
                    <mxGeometry x="17" y="70" width="280" height="60" as="geometry"/>
                </mxCell>
                <mxCell id="7" style="edgeStyle=none;html=1;exitX=1;exitY=0.5;exitDx=0;exitDy=0;entryX=0.012;entryY=-0.152;entryDx=0;entryDy=0;entryPerimeter=0;fontSize=30;" edge="1" parent="1" source="5" target="4">
                    <mxGeometry relative="1" as="geometry"/>
                </mxCell>
                <mxCell id="5" value="&lt;font style=&quot;font-size: 30px&quot;&gt;تابع ساخت سرویس ها&amp;nbsp;&lt;br&gt;ورودی ها را از دیتابیس میگیرد و سرویس ها را ایجاد میکند&amp;nbsp;&lt;/font&gt;" style="rounded=1;whiteSpace=wrap;html=1;fontSize=27;" vertex="1" parent="1">
                    <mxGeometry x="170" y="190" width="340" height="260" as="geometry"/>
                </mxCell>
                <mxCell id="9" style="edgeStyle=orthogonalEdgeStyle;html=1;exitX=0;exitY=0.5;exitDx=0;exitDy=0;entryX=0.002;entryY=1.035;entryDx=0;entryDy=0;entryPerimeter=0;fontSize=30;" edge="1" parent="1" source="6" target="4">
                    <mxGeometry relative="1" as="geometry"/>
                </mxCell>
                <mxCell id="6" value="&lt;span style=&quot;font-size: 30px&quot;&gt;تابع ویرایش سرویس های تعریف شده&amp;nbsp;&lt;/span&gt;" style="rounded=1;whiteSpace=wrap;html=1;fontSize=27;" vertex="1" parent="1">
                    <mxGeometry x="540" y="600" width="470" height="120" as="geometry"/>
                </mxCell>
            </root>
        </mxGraphModel>
    </diagram>
</mxfile>